<?xml version="1.0" standalone="no"?>
<!DOCTYPE svg PUBLIC "-//W3C//DTD SVG 20010904//EN"
 "http://www.w3.org/TR/2001/REC-SVG-20010904/DTD/svg10.dtd">
<svg version="1.0" xmlns="http://www.w3.org/2000/svg"
 width="200.000000pt" height="200.000000pt" viewBox="0 0 200.000000 200.000000"
 preserveAspectRatio="xMidYMid meet">
<metadata>
Created by potrace 1.16, written by Peter Selinger 2001-2019
</metadata>
<g transform="translate(0.000000,200.000000) scale(0.019531,-0.019531)"
fill="#000000" stroke="none">
<path d="M4970 7991 c-63 -21 -178 -64 -255 -96 -383 -157 -447 -183 -565
-233 -52 -22 -138 -58 -190 -80 -274 -116 -550 -235 -678 -293 -34 -16 -65
-29 -67 -29 -2 0 -34 -13 -70 -30 -119 -55 -189 -87 -270 -125 -44 -20 -98
-44 -120 -53 -139 -55 -188 -122 -205 -284 -13 -121 -13 -1189 0 -1383 19
-289 66 -611 120 -826 17 -65 30 -124 30 -132 0 -7 -60 -49 -132 -92 -188
-112 -305 -192 -324 -220 -9 -14 -20 -43 -25 -65 -11 -50 7 -110 119 -379 91
-221 108 -244 225 -294 114 -50 269 -125 287 -140 8 -6 28 -30 44 -52 135
-182 459 -494 707 -678 404 -301 746 -511 1129 -693 234 -111 344 -154 392
-154 89 0 627 263 1018 498 198 119 392 249 575 387 349 262 524 423 691 630
68 85 35 65 341 211 106 51 112 55 146 111 20 32 75 155 123 273 98 242 107
289 66 347 -13 18 -100 83 -200 149 -232 152 -223 143 -205 202 45 149 109
617 123 902 11 218 12 1002 1 1276 -7 185 -8 193 -37 250 -16 32 -45 71 -66
87 -37 29 -68 43 -588 254 -157 63 -424 173 -595 245 -170 71 -386 161 -480
200 -93 39 -224 94 -290 123 -178 78 -474 192 -541 210 -83 21 -105 19 -234
-24z m-389 -645 c-24 -86 -29 -169 -13 -189 6 -7 41 -33 77 -58 36 -24 65 -47
65 -50 0 -9 -32 -20 -165 -59 -157 -47 -570 -186 -775 -262 -96 -36 -199 -74
-229 -84 -38 -13 -63 -31 -85 -58 l-31 -38 0 -258 0 -259 -50 -35 c-27 -20
-57 -36 -66 -36 -14 0 -16 -12 -13 -87 2 -49 6 -165 9 -259 7 -236 40 -554 95
-924 30 -198 70 -511 70 -539 -1 -41 -41 54 -60 139 -25 117 -54 209 -86 276
-26 56 -60 99 -66 87 -3 -4 -3 -2 -1 5 1 7 -10 27 -26 44 -53 57 -168 46 -207
-21 -10 -17 -21 -31 -25 -31 -7 0 -56 251 -69 355 -40 337 -45 457 -45 1060 0
677 -6 626 79 684 24 17 113 63 197 102 85 40 219 103 299 141 79 39 194 90
255 114 60 25 124 51 140 59 17 8 71 30 120 50 50 20 110 45 135 57 25 11 81
33 125 50 44 16 109 41 145 55 36 15 99 37 140 49 90 26 90 26 61 -80z m1210
60 c115 -45 415 -167 454 -186 27 -13 212 -90 375 -156 74 -30 144 -58 155
-63 11 -6 106 -50 210 -99 105 -49 206 -96 225 -104 119 -54 170 -81 165 -89
-4 -5 0 -6 8 -3 8 3 27 -10 45 -30 39 -45 40 -53 47 -486 9 -586 -26 -1188
-86 -1465 -17 -82 -15 -81 -64 -36 -52 48 -81 61 -134 61 -41 0 -91 -31 -91
-56 0 -15 -23 -44 -35 -44 -3 0 -3 5 1 12 5 7 2 9 -8 5 -43 -16 -46 69 -13
329 23 180 34 599 26 1029 -7 341 -11 408 -26 455 -23 73 -73 119 -162 149
-37 13 -111 38 -163 56 -137 48 -308 105 -360 120 -265 78 -441 133 -575 178
-88 30 -175 58 -193 62 -18 4 -32 11 -30 15 2 5 28 26 58 47 70 49 80 78 55
170 -25 93 -31 173 -13 173 7 0 65 -20 129 -44z m-563 -695 c83 -41 200 -84
644 -235 219 -74 418 -144 444 -155 131 -58 343 -255 310 -288 -3 -4 -200 42
-438 101 -238 59 -464 112 -501 119 -67 12 -69 13 -87 55 -39 87 -189 216
-337 291 -34 17 -74 31 -88 31 -35 0 -205 -91 -291 -156 -83 -62 -125 -108
-154 -164 -11 -22 -24 -40 -29 -40 -58 0 -526 -107 -625 -144 -39 -14 -73 -23
-76 -21 -4 3 -10 30 -14 62 -4 31 -14 81 -22 110 -15 53 -13 73 9 73 11 0 290
88 892 279 116 37 230 77 255 88 25 12 46 22 48 22 1 1 28 -12 60 -28z m-113
-766 c-29 -30 -32 -40 -9 -31 9 3 12 2 9 -5 -4 -6 -14 -8 -22 -5 -9 4 -13 1
-10 -6 2 -7 11 -12 20 -12 9 1 13 -4 10 -12 -7 -18 -11 -18 -30 1 -8 9 -18 13
-22 10 -3 -4 1 -12 11 -19 9 -6 18 -23 20 -36 1 -13 9 -25 17 -28 10 -3 13 2
9 22 -3 14 -1 26 3 26 5 0 9 -19 9 -42 -1 -34 -6 -47 -25 -61 -20 -14 -29 -16
-47 -7 -22 11 -22 10 -4 -4 11 -9 23 -16 27 -16 13 0 58 41 62 58 2 9 2 1 0
-18 -3 -31 -2 -33 10 -17 8 9 17 17 21 17 9 0 7 -108 -3 -114 -5 -3 -25 7 -45
23 -20 16 -59 44 -86 61 -53 34 -60 44 -34 54 23 9 32 -3 14 -15 -13 -9 -13
-10 0 -6 29 8 16 31 -19 33 -22 1 -29 -1 -20 -7 16 -10 8 -12 -15 -3 -14 5
-13 10 6 32 42 47 153 152 161 152 4 0 -4 -11 -18 -25z m-491 -167 c7 -34 20
-121 20 -138 1 -8 5 -21 10 -29 6 -9 5 -12 -1 -8 -5 3 -10 0 -10 -8 0 -8 4
-12 9 -9 8 5 9 4 13 -34 2 -23 41 -72 57 -72 5 0 7 4 3 9 -3 5 -1 12 4 16 6 3
8 -3 6 -14 -4 -20 36 -54 62 -54 7 0 10 -4 7 -8 -6 -10 79 -69 106 -74 20 -4
71 -35 57 -35 -4 0 -20 8 -35 17 -40 25 -16 3 56 -51 35 -25 68 -44 74 -40 7
4 8 3 4 -4 -4 -7 -4 -12 1 -12 13 1 50 65 45 78 -3 10 -7 10 -17 2 -8 -6 -11
-19 -8 -28 6 -15 5 -15 -10 -3 -15 12 -17 11 -17 -5 -1 -19 -1 -19 -11 0 -8
13 -14 15 -19 7 -5 -9 -10 -8 -19 2 -9 12 -6 14 18 11 22 -3 29 0 25 10 -3 7
3 19 13 27 16 13 17 12 4 -4 -8 -9 -11 -20 -7 -24 3 -4 12 2 20 12 13 18 15
17 54 -13 47 -38 51 -38 94 -11 232 144 424 275 475 324 55 53 63 66 63 98 0
20 5 37 11 37 5 0 60 -11 120 -25 217 -49 356 -107 524 -221 47 -31 81 -47
104 -48 33 -1 35 1 43 38 10 49 10 48 41 40 l26 -6 -6 -97 c-3 -53 -7 -98 -9
-100 -1 -1 -18 9 -37 23 -19 14 -38 26 -44 26 -5 0 -24 -16 -41 -36 l-31 -35
36 -32 c20 -18 53 -45 75 -60 27 -21 38 -36 38 -55 0 -49 -52 -590 -101 -1062
-17 -157 -33 -315 -36 -352 -3 -40 -11 -69 -18 -72 -7 -2 -60 -38 -117 -79
-102 -74 -472 -311 -571 -365 -90 -50 -256 -147 -445 -261 l-184 -110 -86 46
c-48 25 -139 77 -202 116 -63 39 -162 98 -220 132 -163 95 -408 255 -523 341
-99 74 -145 123 -130 138 3 3 1 6 -6 6 -6 0 -11 6 -9 13 1 6 -1 29 -6 50 -5
25 -3 43 5 53 8 10 8 47 -1 156 -7 81 -15 408 -19 758 -4 383 -8 553 -11 450
l-6 -165 -2 232 c-1 127 -4 238 -7 245 -5 11 14 17 84 26 49 7 96 9 105 6 13
-5 16 3 16 50 0 52 -2 56 -24 56 -28 0 -113 -16 -138 -25 -15 -6 -18 -1 -18
27 l0 35 108 28 c184 47 507 141 527 153 28 16 34 15 39 -10z m-1609 -1809
l60 -29 0 -119 0 -118 -40 -18 c-111 -49 -275 -88 -275 -66 0 7 -35 78 -77
159 -43 80 -79 149 -81 152 -1 4 12 11 30 17 18 6 67 26 108 43 108 45 148 51
185 28 17 -11 57 -32 90 -49z m486 -256 c6 -18 14 -33 18 -33 5 0 11 -34 14
-74 6 -69 40 -194 57 -206 3 -3 24 -25 46 -50 21 -25 31 -39 22 -31 -12 9 -18
10 -18 2 0 -6 6 -12 13 -12 6 -1 17 -2 22 -3 14 -1 65 -42 65 -51 0 -4 -7 -4
-16 -1 -9 3 -12 2 -8 -5 3 -6 14 -9 24 -6 14 3 17 1 13 -11 -5 -12 -2 -14 11
-9 26 10 38 -1 26 -24 -6 -11 -21 -19 -35 -19 -27 0 -41 15 -24 26 8 4 9 3 5
-4 -5 -8 0 -12 13 -12 12 0 21 4 21 9 0 11 -56 32 -64 24 -3 -4 -14 1 -24 10
-10 10 -22 14 -27 10 -4 -5 -5 -1 -3 7 3 8 12 14 19 12 8 -2 10 0 6 4 -11 11
-38 14 -31 3 3 -5 -3 -9 -13 -9 -12 0 -4 -14 31 -49 32 -32 54 -47 64 -43 12
4 14 1 8 -14 -6 -15 -5 -17 5 -6 16 15 29 16 29 1 0 -5 -4 -7 -10 -4 -18 11
-10 -10 10 -28 12 -10 26 -15 32 -11 6 4 8 3 5 -4 -4 -5 10 -24 30 -40 90 -72
171 -131 177 -126 3 2 4 1 1 -3 -6 -8 135 -112 152 -113 6 0 13 -3 15 -7 4
-10 75 -63 83 -63 3 0 3 5 -1 12 -4 7 -3 8 5 4 6 -4 9 -11 6 -16 -3 -4 30 -29
72 -55 43 -26 102 -65 132 -86 52 -38 79 -49 66 -30 -3 5 -1 12 4 15 4 3 8 -4
7 -17 -1 -17 12 -29 59 -54 63 -34 80 -40 70 -23 -3 6 1 7 9 4 9 -3 14 -9 12
-13 -3 -4 -1 -12 3 -19 5 -8 23 5 57 40 27 29 40 45 30 37 -15 -11 -20 -11
-23 -1 -3 6 -10 12 -16 12 -8 0 -7 -4 1 -12 20 -20 13 -32 -8 -13 -13 12 -20
14 -20 5 0 -7 -7 -10 -16 -6 -15 6 -15 4 -3 -10 8 -10 15 -12 17 -5 2 6 8 9
13 6 10 -6 -11 -45 -24 -45 -4 0 -6 4 -3 9 7 10 -18 33 -58 53 l-28 15 31 0
c22 0 28 -3 19 -9 -9 -6 -7 -8 7 -5 11 2 19 9 17 15 -1 7 2 12 8 12 5 0 10 -5
10 -10 0 -7 7 -7 20 0 12 6 35 9 53 6 32 -5 51 -23 120 -116 53 -72 307 -255
307 -221 0 5 17 15 38 21 51 17 414 180 537 242 55 28 130 70 167 94 37 24 82
51 100 60 18 9 35 20 38 24 3 3 34 24 70 45 79 47 367 241 395 266 52 47 116
96 175 135 36 23 80 56 99 72 l34 30 31 -29 31 -29 -45 -40 c-25 -21 -51 -37
-58 -35 -7 3 -10 1 -7 -4 22 -37 -825 -640 -865 -616 -6 4 -9 1 -8 -5 4 -15
-131 -91 -377 -212 -55 -27 -127 -63 -160 -80 -33 -16 -120 -55 -194 -85
l-135 -54 -70 32 c-566 258 -1035 551 -1446 905 -214 183 -429 409 -408 429 2
2 64 12 137 22 127 16 133 18 154 47 28 40 34 124 13 215 -9 40 -14 76 -11 81
3 5 1 11 -5 15 -5 3 -10 14 -10 23 0 22 47 -42 61 -85z"/>
<path d="M4367 5654 c-9 -9 -9 -130 -1 -201 l7 -53 39 0 39 0 -3 128 -3 127
-35 3 c-20 2 -39 0 -43 -4z"/>
<path d="M4333 5060 c-41 -25 -53 -48 -53 -107 0 -55 24 -102 67 -130 26 -17
76 -18 913 -18 l885 0 36 23 c44 27 69 75 69 132 0 36 -6 48 -39 81 l-39 39
-903 0 c-877 0 -905 -1 -936 -20z"/>
<path d="M4341 4501 c-60 -32 -77 -100 -45 -181 13 -32 26 -45 68 -65 l52 -26
870 3 870 3 41 27 c34 22 43 35 53 78 11 44 10 57 -5 96 -11 29 -29 53 -49 65
-30 18 -62 19 -926 19 -843 -1 -897 -2 -929 -19z"/>
<path d="M5215 3950 c-967 -6 -902 0 -926 -80 -23 -78 34 -178 111 -194 18 -3
412 -6 877 -6 900 0 883 -1 927 48 23 26 39 105 30 154 -7 48 -43 74 -109 80
-27 2 -437 1 -910 -2z"/>
</g>
</svg>
